<svg xmlns="http://www.w3.org/2000/svg" viewBox="0 0 960 540" role="img" aria-labelledby="ridgeTitle ridgeDesc">
  <title id="ridgeTitle">Ridge Ramble concept art</title>
  <desc id="ridgeDesc">Stylized matte adventure van in cool green mountain setting</desc>
  <defs>
    <linearGradient id="bg" x1="0%" y1="0%" x2="100%" y2="100%">
      <stop offset="0%" stop-color="#bac7b6"/>
      <stop offset="100%" stop-color="#97a18f"/>
    </linearGradient>
    <linearGradient id="van" x1="0%" y1="0%" x2="100%" y2="100%">
      <stop offset="0%" stop-color="#5a6c58"/>
      <stop offset="100%" stop-color="#3d4c3a"/>
    </linearGradient>
  </defs>
  <rect width="960" height="540" fill="url(#bg)"/>
  <path d="M-20 430C140 360 350 340 520 355C730 372 850 400 980 445V540H-20Z" fill="#4a5038"/>
  <rect x="110" y="172" width="700" height="172" rx="24" fill="url(#van)" stroke="#293124" stroke-width="4"/>
  <rect x="180" y="112" width="560" height="68" rx="16" fill="#6a7c67" stroke="#344032" stroke-width="4"/>
  <rect x="190" y="220" width="160" height="118" fill="#7c8d77"/>
  <rect x="370" y="220" width="160" height="118" fill="#6f7f6c"/>
  <rect x="550" y="220" width="160" height="118" fill="#72806e"/>
  <circle cx="250" cy="371" r="44" fill="#252922"/>
  <circle cx="720" cy="371" r="44" fill="#252922"/>
  <path d="M215 310h120M510 310h120" stroke="#b7c4ad" stroke-width="8" stroke-linecap="round" opacity="0.75"/>
  <rect x="220" y="255" width="190" height="65" fill="#d8e0cf" opacity="0.65"/>
  <rect x="520" y="255" width="190" height="65" fill="#d8e0cf" opacity="0.65"/>
  <circle cx="250" cy="371" r="16" fill="#e0dfd6"/>
  <circle cx="720" cy="371" r="16" fill="#e0dfd6"/>
</svg>
